PathFileType	4	(X/Y/Z)	C:/Users/beibeiliu/ov580/test_trc\sequence.35_training_dense_left.trc
DataRate	CameraRate	NumFrames	NumMarkers	Units	OrigDataRate	OrigDataStartFrame	OrigNumFrames
120	120	15	19	mm	120	73	169
Frame#	Time	ThumbCMC			ThumbMCP			ThumbIP			ThumbTip			IndexMCP			IndexPIP			IndexTip			MiddleMCP			MiddlePIP			MiddleTip			RingMCP			RingPIP			RingTip			PinkyMCP			PinkyPIP			PinkyTip			BackHand1			BackHand2			BackHand3	
		X0	Y0	Z0	X1	Y1	Z1	X2	Y2	Z2	X3	Y3	Z3	X4	Y4	Z4	X5	Y5	Z5	X6	Y6	Z6	X7	Y7	Z7	X8	Y8	Z8	X9	Y9	Z9	X10	Y10	Z10	X11	Y11	Z11	X12	Y12	Z12	X13	Y13	Z13	X14	Y14	Z14	X15	Y15	Z15	X16	Y16	Z16	X17	Y17	Z17	X18	Y18	Z18	
72	0.6	-198.325	11.0946	43.3928	-194.467	-6.09381	22.9881	-188.159	-16.6551	1.99976	-187.807	-23.9965	-17.0428	-206.675	15.2523	-27.5913	-217.041	-2.02471	-42.5761	-230.121	-23.6561	-45.5296	-219.457	36.6446	-34.4507	-222.745	32.4444	-57.1486	-223.993	30.2674	-79.1074	-235.062	50.2996	-22.8637	-233.311	55.1086	-43.1568	-230.714	62.1079	-62.4986	-249.908	53.7318	-3.81761	-255.1	65.355	-15.4942	-254.038	82.262	-22.1239	-231.505	54.2767	21.5205	-227.091	54.8906	48.2924	-206.635	42.1487	31.9066	
73	0.608333	-191.273	7.23184	44.9847	-189.404	-9.81879	22.0207	-185.272	-23.4178	0.940871	-183.144	-35.9426	-11.4046	-195.442	6.43657	-23.9442	-208.144	-12.6107	-39.8063	-230.419	-28.7723	-42.5715	-204.368	27.8796	-31.9661	-209.209	25.2182	-52.673	-212.258	22.4144	-80.8154	-218.091	44.6057	-21.882	-217.416	47.9029	-45.9311	-215.919	55.265	-64.7294	-234.955	55.7478	-8.70299	-239.281	65.5024	-19.0847	-232.115	78.0823	-31.7329	-213.441	48.7029	17.997	-215.394	55.1211	42.036	-193.739	36.6979	29.5563	
74	0.616667	-181.99	1.32624	46.7471	-179.744	-22.0171	28.8288	-179.663	-34.0803	6.32155	-178.182	-47.8611	-4.6966	-185.609	-3.73605	-20.8859	-200.478	-18.3855	-36.5441	-219.666	-36.1244	-40.4826	-190.591	17.3986	-32.0042	-196.098	13.4115	-51.116	-196.125	8.65348	-73.8032	-200.887	35.5759	-19.9787	-201.609	41.0223	-44.8297	-200.286	42.143	-59.3426	-217.968	51.9822	-6.32665	-217.818	56.2483	-19.2908	-211.272	68.8438	-32.9727	-200.25	44.7987	22.3497	-192.74	48.1241	45.976	-177.576	27.1167	33.2028	
75	0.625	-170.73	-5.63658	48.8554	-173.958	-25.3558	30.5793	-171.835	-39.2675	13.4377	-173.417	-52.6291	-1.09167	-176.388	-5.80071	-20.0283	-192.795	-21.6609	-36.5242	-208.556	-38.6629	-42.3399	-179.859	12.5783	-28.2839	-185.689	9.09662	-49.0919	-187.507	4.38674	-75.1398	-192.167	33.9658	-21.0854	-188.96	32.8616	-41.2508	-187.465	39.1682	-62.94	-205.274	45.9323	-4.95719	-207.114	55.2856	-18.4767	-198.858	63.8813	-34.1149	-183.984	37.7855	19.1124	-180.82	44.4422	48.826	-166.96	25.2585	36.8925	
76	0.633333	-164.038	-5.76524	45.8395	-167.185	-26.0388	31.3441	-168.953	-36.5343	10.3798	-167.455	-53.2872	-2.09757	-165.898	-7.00414	-18.2465	-178.895	-21.0196	-38.4542	-197.335	-32.3377	-48.6595	-174.402	14.6488	-30.4744	-179.144	12.5259	-50.434	-178.788	7.4495	-72.2644	-185.455	32.3865	-20.2102	-188.094	37.4934	-43.0519	-187.514	39.6483	-59.6163	-204.025	49.2372	-6.90687	-206.941	54.0314	-19.289	-201.905	66.5196	-36.0427	-180.852	39.8865	23.3753	-178.06	48.5029	43.7428	-161.24	26.1435	31.6863	
77	0.641667	-163.835	-0.0506108	46.7574	-167.963	-22.4294	29.6327	-169.129	-39.4191	13.2309	-170.194	-52.5734	1.32482	-167.287	-1.94926	-20.3677	-177.927	-16.512	-40.7617	-195.373	-29.9899	-53.8315	-173.148	16.4234	-28.9063	-177.382	13.0718	-48.3846	-181.511	12.5905	-73.2085	-188.705	34.9063	-22.0127	-192.089	38.2755	-43.9531	-190.462	41.4408	-62.8013	-204.969	48.9141	-9.11813	-210.69	53.8698	-21.9788	-210.033	60.6286	-34.8866	-178.313	44.8014	19.7809	-175.953	49.592	45.0611	-159.707	29.0029	30.4419	
78	0.65	-160.26	-2.47342	48.8291	-170.692	-22.4785	30.7424	-176.356	-37.158	17.1758	-181.256	-50.5194	4.03072	-171.535	-4.86156	-20.473	-182.744	-16.9353	-36.4356	-201.996	-27.4247	-47.2214	-176.403	20.2884	-26.1575	-181.927	12.8841	-52.0326	-185.314	9.36461	-72.4535	-184.973	37.2133	-18.2696	-190.402	41.0957	-41.7074	-191.168	41.0023	-58.309	-197.829	52.2187	-3.71168	-203.568	60.3859	-22.4944	-202.169	68.4057	-34.7385	-171.734	43.1698	22.6344	-166.214	50.0181	42.9514	-154.528	24.7102	31.8987	
79	0.658333	-156.956	1.39111	48.5525	-170.809	-19.0378	37.1325	-179.606	-36.4797	24.0075	-187.841	-48.9698	13.3535	-172.711	-3.48408	-15.7683	-194.427	-14.8509	-31.332	-212.174	-23.8181	-36.0597	-174.303	19.313	-26.7115	-182.559	11.9565	-45.0585	-193.172	10.6438	-67.4157	-176.249	38.8939	-23.1889	-183.353	42.1783	-41.033	-185.142	40.0362	-59.067	-182.467	59.0344	-5.44433	-186.3	66.1852	-18.3987	-184.514	72.618	-34.4283	-159.717	47.425	21.3296	-148.076	51.2103	39.6791	-143.908	25.2337	29.8796	
80	0.666667	-151.116	4.93101	49.112	-166.307	-16.6097	43.2824	-178.125	-29.4907	26.4794	-188.968	-42.3135	18.9472	-172.582	-5.54804	-15.7102	-196.221	-12.8047	-24.6723	-219.401	-20.4951	-22.3996	-170.154	18.8464	-25.7176	-182.271	13.5333	-46.1325	-194.62	8.1386	-63.7234	-168.82	38.609	-19.5317	-175.172	38.7785	-38.7734	-179.922	38.2986	-61.9921	-171.935	65.0379	-6.96686	-174.644	64.9517	-20.396	-170.084	75.3077	-34.1297	-149.538	49.0135	14.2022	-138.331	50.2692	40.0845	-136.304	25.1124	30.7876	
81	0.675	-143.662	1.84105	52.4977	-162.298	-15.8062	42.9753	-173.672	-30.3834	30.0116	-185.858	-41.8431	22.6646	-166.997	-5.39363	-10.517	-190.788	-10.3793	-19.0081	-218.003	-12.2057	-12.8544	-164.278	14.7235	-24.4078	-176.859	8.92313	-43.5506	-192.863	10.4605	-62.9976	-163.039	40.7539	-18.8199	-168.819	42.2474	-38.3202	-173.088	38.6784	-62.3174	-164.16	60.5927	-8.89509	-164.965	66.0401	-21.1177	-159.471	78.0335	-33.4385	-142.794	49.6274	17.3799	-132.794	55.1253	38.5134	-130.903	25.5532	30.5012	
82	0.683333	-139.419	1.10734	52.3949	-157.649	-14.0302	46.0649	-172.157	-30.7832	30.6221	-183.436	-41.7369	20.4827	-163.217	-8.41072	-9.85032	-187.888	-13.9732	-14.7333	-213.088	-11.2084	-6.99772	-158.465	15.3617	-20.8964	-175.15	8.24963	-43.9659	-190.752	7.22557	-62.1715	-158.028	38.6069	-18.9087	-164.817	40.9932	-37.9099	-167.971	35.7893	-58.7652	-159.83	58.4894	-1.99191	-159.958	66.0486	-17.4057	-155.18	74.1406	-29.9499	-138.099	43.6232	16.6066	-126.243	50.4557	40.2856	-124.484	25.873	32.7842	
83	0.691667	-139.714	1.03876	55.8168	-158.621	-20.4173	47.1054	-171.674	-31.7669	32.0584	-184.104	-46.2677	22.5687	-162.422	-10.0837	-7.41039	-189.418	-14.6528	-12.7427	-213.058	-15.2961	-2.56231	-160.327	14.362	-23.8537	-174.938	9.60738	-41.2986	-189.617	6.0986	-58.5175	-157.387	35.8366	-15.8313	-163.714	37.5412	-36.0056	-167.516	37.5915	-57.8303	-159.991	57.9905	-0.270925	-160.508	64.9156	-14.003	-152.023	69.2231	-30.5109	-140.136	44.3897	19.0622	-128.902	51.3544	42.4456	-125.258	21.7911	32.9396	
84	0.7	-142.176	-4.94549	52.7571	-161.64	-23.8156	44.7258	-173.289	-39.52	32.9698	-185.365	-49.2893	23.9561	-164.231	-11.3549	-7.34797	-195.053	-15.2619	-10.5758	-214.589	-18.922	0.430854	-162.951	8.90836	-22.0523	-175.593	8.20412	-39.0971	-191.721	1.68623	-58.8773	-160.163	35.6318	-16.0208	-166.139	34.0137	-38.5055	-169.263	34.2641	-57.8571	-160.866	53.3329	-1.99866	-162.467	62.518	-13.443	-153.689	65.7603	-27.6487	-141.072	43.291	19.5075	-130.877	47.2641	46.4315	-127.27	18.3949	34.2666	
85	0.708333	-144.794	-7.29568	54.8985	-163.829	-23.8115	42.3221	-175.498	-37.1401	30.3406	-185.873	-52.4415	20.2583	-169.373	-11.272	-8.4166	-192.757	-16.2776	-10.9407	-217.153	-18.8653	2.26345	-163.771	9.25301	-20.2029	-180.019	4.0535	-40.8909	-194.457	1.26775	-57.1689	-163.546	36.3832	-15.1941	-168.214	32.3942	-35.9928	-173.414	37.0481	-57.0754	-164.805	56.3959	-0.570153	-166.076	59.3714	-12.3053	-156.276	70.1281	-26.7788	-145.709	41.9522	23.9312	-134.654	43.2673	44.2924	-130.147	17.0483	37.9281	
86	0.716667	-147.596	-7.23107	54.2234	-165.947	-27.5039	42.1445	-176.319	-42.3178	31.7338	-188.63	-56.2197	16.5378	-171.463	-10.4016	-8.22563	-198.281	-21.0358	-11.1461	-222.252	-21.3399	4.00486	-168.235	12.838	-19.215	-182.047	5.64202	-37.8859	-200.994	2.94533	-60.8786	-167.298	32.689	-14.4614	-173.539	34.9067	-37.8764	-176.463	36.4036	-53.1858	-168.41	50.8981	1.14736	-168.516	57.2331	-15.7948	-162.009	68.8485	-24.1695	-149.941	40.1755	26.4391	-137.153	41.017	44.2052	-132.489	14.7787	36.0338	
